<mxfile host="app.diagrams.net" modified="2024-03-24T16:15:29.715Z" agent="Mozilla/5.0 (Windows NT 10.0; Win64; x64) AppleWebKit/537.36 (KHTML, like Gecko) Chrome/122.0.0.0 Safari/537.36" etag="y00ZgTrS0goOokvtST_b" version="24.0.4" type="device">
  <diagram name="Page-1" id="IhN679ompJU7xOXQ_SNx">
    <mxGraphModel dx="1562" dy="614" grid="1" gridSize="10" guides="1" tooltips="1" connect="1" arrows="1" fold="1" page="1" pageScale="1" pageWidth="850" pageHeight="1100" math="0" shadow="0">
      <root>
        <mxCell id="0" />
        <mxCell id="1" parent="0" />
        <mxCell id="NgdfqfedQmqeb2TTbcV7-1" value="" style="shape=ellipse;html=1;fillColor=strokeColor;fontSize=18;fontColor=#ffffff;" vertex="1" parent="1">
          <mxGeometry x="80" y="40" width="40" height="40" as="geometry" />
        </mxCell>
        <mxCell id="NgdfqfedQmqeb2TTbcV7-2" value="" style="edgeStyle=none;html=1;endArrow=open;endSize=12;strokeWidth=3;verticalAlign=bottom;rounded=0;exitX=0.5;exitY=1;exitDx=0;exitDy=0;" edge="1" parent="1" source="NgdfqfedQmqeb2TTbcV7-1" target="NgdfqfedQmqeb2TTbcV7-7">
          <mxGeometry x="0.125" width="160" relative="1" as="geometry">
            <mxPoint x="100" y="120" as="sourcePoint" />
            <mxPoint x="160" y="200" as="targetPoint" />
            <Array as="points">
              <mxPoint x="100" y="200" />
            </Array>
            <mxPoint as="offset" />
          </mxGeometry>
        </mxCell>
        <mxCell id="NgdfqfedQmqeb2TTbcV7-7" value="" style="rhombus;" vertex="1" parent="1">
          <mxGeometry x="145" y="185" width="30" height="30" as="geometry" />
        </mxCell>
        <mxCell id="NgdfqfedQmqeb2TTbcV7-8" value="" style="edgeStyle=none;html=1;endArrow=open;endSize=12;strokeWidth=3;verticalAlign=bottom;rounded=0;exitX=0.5;exitY=0;exitDx=0;exitDy=0;" edge="1" parent="1" source="NgdfqfedQmqeb2TTbcV7-7">
          <mxGeometry x="0.125" width="160" relative="1" as="geometry">
            <mxPoint x="220" y="80" as="sourcePoint" />
            <mxPoint x="240" y="120" as="targetPoint" />
            <Array as="points">
              <mxPoint x="160" y="120" />
            </Array>
            <mxPoint as="offset" />
          </mxGeometry>
        </mxCell>
        <mxCell id="NgdfqfedQmqeb2TTbcV7-9" value="Register" style="html=1;align=center;verticalAlign=top;rounded=1;absoluteArcSize=1;arcSize=10;dashed=0;whiteSpace=wrap;" vertex="1" parent="1">
          <mxGeometry x="240" y="100" width="80" height="40" as="geometry" />
        </mxCell>
        <mxCell id="NgdfqfedQmqeb2TTbcV7-11" value="" style="edgeStyle=none;html=1;endArrow=open;endSize=12;strokeWidth=3;verticalAlign=bottom;rounded=0;exitX=0.5;exitY=1;exitDx=0;exitDy=0;" edge="1" parent="1" source="NgdfqfedQmqeb2TTbcV7-7">
          <mxGeometry x="0.125" width="160" relative="1" as="geometry">
            <mxPoint x="160" y="325" as="sourcePoint" />
            <mxPoint x="240" y="280" as="targetPoint" />
            <Array as="points">
              <mxPoint x="160" y="280" />
            </Array>
            <mxPoint as="offset" />
          </mxGeometry>
        </mxCell>
        <mxCell id="NgdfqfedQmqeb2TTbcV7-12" value="Login" style="html=1;align=center;verticalAlign=top;rounded=1;absoluteArcSize=1;arcSize=10;dashed=0;whiteSpace=wrap;" vertex="1" parent="1">
          <mxGeometry x="240" y="260" width="80" height="40" as="geometry" />
        </mxCell>
        <mxCell id="NgdfqfedQmqeb2TTbcV7-13" value="&lt;span style=&quot;color: rgb(0, 0, 0); font-family: Helvetica; font-size: 12px; font-style: normal; font-variant-ligatures: normal; font-variant-caps: normal; font-weight: 400; letter-spacing: normal; orphans: 2; text-align: center; text-indent: 0px; text-transform: none; widows: 2; word-spacing: 0px; -webkit-text-stroke-width: 0px; white-space: normal; background-color: rgb(251, 251, 251); text-decoration-thickness: initial; text-decoration-style: initial; text-decoration-color: initial; display: inline !important; float: none;&quot;&gt;Already have an account&lt;/span&gt;" style="text;whiteSpace=wrap;html=1;" vertex="1" parent="1">
          <mxGeometry x="110" y="230" width="130" height="40" as="geometry" />
        </mxCell>
        <mxCell id="NgdfqfedQmqeb2TTbcV7-14" style="edgeStyle=orthogonalEdgeStyle;rounded=0;orthogonalLoop=1;jettySize=auto;html=1;exitX=0.5;exitY=1;exitDx=0;exitDy=0;" edge="1" parent="1">
          <mxGeometry relative="1" as="geometry">
            <mxPoint x="330" y="220" as="sourcePoint" />
            <mxPoint x="330" y="220" as="targetPoint" />
          </mxGeometry>
        </mxCell>
        <mxCell id="NgdfqfedQmqeb2TTbcV7-15" value="&lt;span style=&quot;color: rgb(0, 0, 0); font-family: Helvetica; font-size: 12px; font-style: normal; font-variant-ligatures: normal; font-variant-caps: normal; font-weight: 400; letter-spacing: normal; orphans: 2; text-align: center; text-indent: 0px; text-transform: none; widows: 2; word-spacing: 0px; -webkit-text-stroke-width: 0px; white-space: normal; background-color: rgb(251, 251, 251); text-decoration-thickness: initial; text-decoration-style: initial; text-decoration-color: initial; display: inline !important; float: none;&quot;&gt;First time visiting&amp;nbsp;&lt;/span&gt;" style="text;whiteSpace=wrap;html=1;" vertex="1" parent="1">
          <mxGeometry x="120" y="140" width="170" height="40" as="geometry" />
        </mxCell>
        <mxCell id="NgdfqfedQmqeb2TTbcV7-16" value="" style="edgeStyle=none;html=1;endArrow=open;endSize=12;strokeWidth=3;verticalAlign=bottom;rounded=0;entryX=0.5;entryY=0;entryDx=0;entryDy=0;" edge="1" parent="1" source="NgdfqfedQmqeb2TTbcV7-15" target="NgdfqfedQmqeb2TTbcV7-12">
          <mxGeometry x="0.125" width="160" relative="1" as="geometry">
            <mxPoint x="260" y="250" as="sourcePoint" />
            <mxPoint x="280" y="250" as="targetPoint" />
            <Array as="points">
              <mxPoint x="280" y="140" />
            </Array>
            <mxPoint as="offset" />
          </mxGeometry>
        </mxCell>
        <mxCell id="NgdfqfedQmqeb2TTbcV7-17" value="диаграмма состояния" style="text;strokeColor=none;fillColor=none;html=1;fontSize=24;fontStyle=1;verticalAlign=middle;align=center;" vertex="1" parent="1">
          <mxGeometry x="210" y="20" width="270" height="60" as="geometry" />
        </mxCell>
        <mxCell id="NgdfqfedQmqeb2TTbcV7-18" value="" style="edgeStyle=none;html=1;endArrow=open;endSize=12;strokeWidth=3;verticalAlign=bottom;rounded=0;" edge="1" parent="1">
          <mxGeometry x="0.125" width="160" relative="1" as="geometry">
            <mxPoint x="279.41" y="300" as="sourcePoint" />
            <mxPoint x="280" y="370" as="targetPoint" />
            <Array as="points">
              <mxPoint x="279.41" y="300" />
            </Array>
            <mxPoint as="offset" />
          </mxGeometry>
        </mxCell>
        <mxCell id="NgdfqfedQmqeb2TTbcV7-19" value="Search item" style="html=1;align=center;verticalAlign=top;rounded=1;absoluteArcSize=1;arcSize=10;dashed=0;whiteSpace=wrap;" vertex="1" parent="1">
          <mxGeometry x="240" y="370" width="80" height="40" as="geometry" />
        </mxCell>
        <mxCell id="NgdfqfedQmqeb2TTbcV7-20" value="&lt;span style=&quot;color: rgb(0, 0, 0); font-family: Helvetica; font-size: 12px; font-style: normal; font-variant-ligatures: normal; font-variant-caps: normal; font-weight: 400; letter-spacing: normal; orphans: 2; text-align: center; text-indent: 0px; text-transform: none; widows: 2; word-spacing: 0px; -webkit-text-stroke-width: 0px; white-space: normal; background-color: rgb(251, 251, 251); text-decoration-thickness: initial; text-decoration-style: initial; text-decoration-color: initial; display: inline !important; float: none;&quot;&gt;Login successful&lt;/span&gt;" style="text;whiteSpace=wrap;html=1;" vertex="1" parent="1">
          <mxGeometry x="230" y="310" width="130" height="40" as="geometry" />
        </mxCell>
        <mxCell id="NgdfqfedQmqeb2TTbcV7-21" value="" style="edgeStyle=none;html=1;endArrow=open;endSize=12;strokeWidth=3;verticalAlign=bottom;rounded=0;" edge="1" parent="1">
          <mxGeometry x="0.125" width="160" relative="1" as="geometry">
            <mxPoint x="279.41" y="410" as="sourcePoint" />
            <mxPoint x="280" y="480" as="targetPoint" />
            <Array as="points">
              <mxPoint x="279.41" y="410" />
            </Array>
            <mxPoint as="offset" />
          </mxGeometry>
        </mxCell>
        <mxCell id="NgdfqfedQmqeb2TTbcV7-22" value="" style="rhombus;" vertex="1" parent="1">
          <mxGeometry x="262.5" y="480" width="35" height="40" as="geometry" />
        </mxCell>
        <mxCell id="NgdfqfedQmqeb2TTbcV7-24" value="" style="edgeStyle=none;html=1;endArrow=open;endSize=12;strokeWidth=3;verticalAlign=bottom;rounded=0;entryX=1;entryY=0.75;entryDx=0;entryDy=0;" edge="1" parent="1" source="NgdfqfedQmqeb2TTbcV7-22" target="NgdfqfedQmqeb2TTbcV7-19">
          <mxGeometry x="0.125" width="160" relative="1" as="geometry">
            <mxPoint x="300" y="500" as="sourcePoint" />
            <mxPoint x="360" y="500" as="targetPoint" />
            <Array as="points">
              <mxPoint x="360" y="500" />
              <mxPoint x="360" y="400" />
            </Array>
            <mxPoint as="offset" />
          </mxGeometry>
        </mxCell>
        <mxCell id="NgdfqfedQmqeb2TTbcV7-26" value="&lt;span style=&quot;color: rgb(0, 0, 0); font-family: Helvetica; font-size: 12px; font-style: normal; font-variant-ligatures: normal; font-variant-caps: normal; font-weight: 400; letter-spacing: normal; orphans: 2; text-align: center; text-indent: 0px; text-transform: none; widows: 2; word-spacing: 0px; -webkit-text-stroke-width: 0px; white-space: normal; background-color: rgb(251, 251, 251); text-decoration-thickness: initial; text-decoration-style: initial; text-decoration-color: initial; display: inline !important; float: none;&quot;&gt;NO&lt;/span&gt;" style="text;whiteSpace=wrap;html=1;" vertex="1" parent="1">
          <mxGeometry x="350" y="440" width="30" height="30" as="geometry" />
        </mxCell>
        <mxCell id="NgdfqfedQmqeb2TTbcV7-29" value="" style="edgeStyle=none;html=1;endArrow=open;endSize=12;strokeWidth=3;verticalAlign=bottom;rounded=0;" edge="1" parent="1">
          <mxGeometry x="0.125" width="160" relative="1" as="geometry">
            <mxPoint x="279.41" y="520" as="sourcePoint" />
            <mxPoint x="280" y="590" as="targetPoint" />
            <Array as="points">
              <mxPoint x="279.41" y="520" />
            </Array>
            <mxPoint as="offset" />
          </mxGeometry>
        </mxCell>
        <mxCell id="NgdfqfedQmqeb2TTbcV7-32" value="&lt;span style=&quot;color: rgb(0, 0, 0); font-family: Helvetica; font-size: 12px; font-style: normal; font-variant-ligatures: normal; font-variant-caps: normal; font-weight: 400; letter-spacing: normal; orphans: 2; text-align: center; text-indent: 0px; text-transform: none; widows: 2; word-spacing: 0px; -webkit-text-stroke-width: 0px; white-space: normal; background-color: rgb(251, 251, 251); text-decoration-thickness: initial; text-decoration-style: initial; text-decoration-color: initial; display: inline !important; float: none;&quot;&gt;&amp;nbsp;Item found ?&amp;nbsp;&lt;/span&gt;" style="text;whiteSpace=wrap;html=1;" vertex="1" parent="1">
          <mxGeometry x="180" y="490" width="82.5" height="30" as="geometry" />
        </mxCell>
        <mxCell id="NgdfqfedQmqeb2TTbcV7-33" value="Add to cart" style="html=1;align=center;verticalAlign=top;rounded=1;absoluteArcSize=1;arcSize=10;dashed=0;whiteSpace=wrap;" vertex="1" parent="1">
          <mxGeometry x="240" y="590" width="80" height="40" as="geometry" />
        </mxCell>
        <mxCell id="NgdfqfedQmqeb2TTbcV7-34" value="" style="edgeStyle=none;html=1;endArrow=open;endSize=12;strokeWidth=3;verticalAlign=bottom;rounded=0;entryX=1;entryY=0.25;entryDx=0;entryDy=0;" edge="1" parent="1" target="NgdfqfedQmqeb2TTbcV7-19">
          <mxGeometry x="0.125" width="160" relative="1" as="geometry">
            <mxPoint x="320" y="610" as="sourcePoint" />
            <mxPoint x="342" y="500" as="targetPoint" />
            <Array as="points">
              <mxPoint x="400" y="610" />
              <mxPoint x="400" y="380" />
            </Array>
            <mxPoint as="offset" />
          </mxGeometry>
        </mxCell>
        <mxCell id="NgdfqfedQmqeb2TTbcV7-38" value="&lt;span style=&quot;color: rgb(0, 0, 0); font-family: Helvetica; font-size: 12px; font-style: normal; font-variant-ligatures: normal; font-variant-caps: normal; font-weight: 400; letter-spacing: normal; orphans: 2; text-align: center; text-indent: 0px; text-transform: none; widows: 2; word-spacing: 0px; -webkit-text-stroke-width: 0px; white-space: normal; background-color: rgb(251, 251, 251); text-decoration-thickness: initial; text-decoration-style: initial; text-decoration-color: initial; display: inline !important; float: none;&quot;&gt;Search more items&lt;/span&gt;" style="text;whiteSpace=wrap;html=1;" vertex="1" parent="1">
          <mxGeometry x="360" y="520" width="90" height="30" as="geometry" />
        </mxCell>
        <mxCell id="NgdfqfedQmqeb2TTbcV7-39" value="&lt;span style=&quot;color: rgb(0, 0, 0); font-family: Helvetica; font-size: 12px; font-style: normal; font-variant-ligatures: normal; font-variant-caps: normal; font-weight: 400; letter-spacing: normal; orphans: 2; text-align: center; text-indent: 0px; text-transform: none; widows: 2; word-spacing: 0px; -webkit-text-stroke-width: 0px; white-space: normal; background-color: rgb(251, 251, 251); text-decoration-thickness: initial; text-decoration-style: initial; text-decoration-color: initial; display: inline !important; float: none;&quot;&gt;YES&lt;/span&gt;" style="text;whiteSpace=wrap;html=1;" vertex="1" parent="1">
          <mxGeometry x="267.5" y="535" width="30" height="30" as="geometry" />
        </mxCell>
        <mxCell id="NgdfqfedQmqeb2TTbcV7-41" value="Go to shopping cart" style="html=1;align=center;verticalAlign=top;rounded=1;absoluteArcSize=1;arcSize=10;dashed=0;whiteSpace=wrap;" vertex="1" parent="1">
          <mxGeometry x="240" y="700" width="80" height="40" as="geometry" />
        </mxCell>
        <mxCell id="NgdfqfedQmqeb2TTbcV7-46" value="" style="edgeStyle=none;html=1;endArrow=open;endSize=12;strokeWidth=3;verticalAlign=bottom;rounded=0;" edge="1" parent="1">
          <mxGeometry x="0.125" width="160" relative="1" as="geometry">
            <mxPoint x="279.70000000000005" y="630" as="sourcePoint" />
            <mxPoint x="280.29" y="700" as="targetPoint" />
            <Array as="points">
              <mxPoint x="279.70000000000005" y="630" />
            </Array>
            <mxPoint as="offset" />
          </mxGeometry>
        </mxCell>
        <mxCell id="NgdfqfedQmqeb2TTbcV7-43" value="&lt;span style=&quot;color: rgb(0, 0, 0); font-family: Helvetica; font-size: 12px; font-style: normal; font-variant-ligatures: normal; font-variant-caps: normal; font-weight: 400; letter-spacing: normal; orphans: 2; text-align: center; text-indent: 0px; text-transform: none; widows: 2; word-spacing: 0px; -webkit-text-stroke-width: 0px; white-space: normal; background-color: rgb(251, 251, 251); text-decoration-thickness: initial; text-decoration-style: initial; text-decoration-color: initial; display: inline !important; float: none;&quot;&gt;See updated cart&lt;/span&gt;" style="text;whiteSpace=wrap;html=1;" vertex="1" parent="1">
          <mxGeometry x="240" y="640" width="90" height="40" as="geometry" />
        </mxCell>
        <mxCell id="NgdfqfedQmqeb2TTbcV7-47" value="" style="edgeStyle=none;html=1;endArrow=open;endSize=12;strokeWidth=3;verticalAlign=bottom;rounded=0;" edge="1" parent="1">
          <mxGeometry x="0.125" width="160" relative="1" as="geometry">
            <mxPoint x="282.08000000000004" y="740" as="sourcePoint" />
            <mxPoint x="282.67" y="810" as="targetPoint" />
            <Array as="points">
              <mxPoint x="282.08000000000004" y="740" />
              <mxPoint x="282.38" y="770" />
            </Array>
            <mxPoint as="offset" />
          </mxGeometry>
        </mxCell>
        <mxCell id="NgdfqfedQmqeb2TTbcV7-48" value="Proceed payment" style="html=1;align=center;verticalAlign=top;rounded=1;absoluteArcSize=1;arcSize=10;dashed=0;whiteSpace=wrap;" vertex="1" parent="1">
          <mxGeometry x="245" y="810" width="80" height="40" as="geometry" />
        </mxCell>
        <mxCell id="NgdfqfedQmqeb2TTbcV7-49" value="&lt;span style=&quot;color: rgb(0, 0, 0); font-family: Helvetica; font-size: 12px; font-style: normal; font-variant-ligatures: normal; font-variant-caps: normal; font-weight: 400; letter-spacing: normal; orphans: 2; text-align: center; text-indent: 0px; text-transform: none; widows: 2; word-spacing: 0px; -webkit-text-stroke-width: 0px; white-space: normal; background-color: rgb(251, 251, 251); text-decoration-thickness: initial; text-decoration-style: initial; text-decoration-color: initial; display: inline !important; float: none;&quot;&gt;Select item&lt;/span&gt;" style="text;whiteSpace=wrap;html=1;" vertex="1" parent="1">
          <mxGeometry x="250" y="750" width="90" height="40" as="geometry" />
        </mxCell>
        <mxCell id="NgdfqfedQmqeb2TTbcV7-50" value="" style="edgeStyle=none;html=1;endArrow=open;endSize=12;strokeWidth=3;verticalAlign=bottom;rounded=0;" edge="1" parent="1">
          <mxGeometry x="0.125" width="160" relative="1" as="geometry">
            <mxPoint x="282.08000000000004" y="850" as="sourcePoint" />
            <mxPoint x="282.67" y="920" as="targetPoint" />
            <Array as="points">
              <mxPoint x="282.08000000000004" y="850" />
              <mxPoint x="282.38" y="880" />
            </Array>
            <mxPoint as="offset" />
          </mxGeometry>
        </mxCell>
        <mxCell id="NgdfqfedQmqeb2TTbcV7-51" value="" style="ellipse;html=1;shape=endState;fillColor=strokeColor;" vertex="1" parent="1">
          <mxGeometry x="267.5" y="920" width="30" height="30" as="geometry" />
        </mxCell>
      </root>
    </mxGraphModel>
  </diagram>
</mxfile>
